# xmcd CD database file
#
# Track frame offsets:
#	183
#	16933
#	46758
#	84145
#	106433
#	122820
#	152445
#	178795
#	206533
#	228770
#	265470
#	299683
#	328408
#
# Disc length: 4708 seconds
#
# Revision: 0
# Processed by: cddbd v1.4PL0 Copyright (c) Steve Scherf et al.
# Submitted via: CDex 1.40Release
#
DISCID=af12620d
DTITLE=Louisiana Red - Always Played The Blues
DYEAR=1900
DGENRE=Blues
TTITLE0=Valerie
TTITLE1=Down So Long
TTITLE2=Sun Goes Down
TTITLE3=Leaving Town
TTITLE4=Brought Up The Hard Way
TTITLE5=Steel On My Hand
TTITLE6=Mambo Mumbo
TTITLE7=I'm Leaving
TTITLE8=Vivienne
TTITLE9=This Little Letter
TTITLE10=Feeling Inside
TTITLE11=Hello, Mean Old World
TTITLE12=The Best Place
EXTD=ID3G: 0
EXTT0=
EXTT1=
EXTT2=
EXTT3=
EXTT4=
EXTT5=
EXTT6=
EXTT7=
EXTT8=
EXTT9=
EXTT10=
EXTT11=
EXTT12=
PLAYORDER=
